HIERARCHY
ROOT hip
{
  OFFSET 86.8379 73.4872 -26.5772
  CHANNELS 6 Xposition Yposition Zposition Zrotation Xrotation Yrotation
  JOINT abdomen
  {
    OFFSET 0 20.6881 -0.73152
    CHANNELS 3 Zrotation Xrotation Yrotation
    JOINT chest
    {
      OFFSET 0 11.7043 -0.48768
      CHANNELS 3 Zrotation Xrotation Yrotation
      JOINT neck
      {
        OFFSET 0 22.1894 -2.19456
        CHANNELS 3 Zrotation Xrotation Yrotation
        JOINT head
        {
          OFFSET -0.24384 7.07133 1.2192
          CHANNELS 3 Zrotation Xrotation Yrotation
          JOINT leftEye
          {
            OFFSET 4.14528 8.04674 8.04672
            CHANNELS 3 Zrotation Xrotation Yrotation
            End Site
            {
              OFFSET 1 0 0
            }
          }
          JOINT rightEye
          {
            OFFSET -3.6576 8.04674 8.04672
            CHANNELS 3 Zrotation Xrotation Yrotation
            End Site
            {
              OFFSET 1 0 0
            }
          }
        }
      }
      JOINT rCollar
      {
        OFFSET -2.68224 19.2634 -4.8768
        CHANNELS 3 Zrotation Xrotation Yrotation
        JOINT rShldr
        {
          OFFSET -8.77824 -1.95073 1.46304
          CHANNELS 3 Zrotation Xrotation Yrotation
          JOINT rForeArm
          {
            OFFSET -28.1742 -1.7115 0.48768
            CHANNELS 3 Zrotation Xrotation Yrotation
            JOINT rHand
            {
              OFFSET -22.5879 0.773209 7.07136
              CHANNELS 3 Zrotation Xrotation Yrotation
              JOINT rThumb1
              {
                OFFSET -1.2192 -0.487915 3.41376
                CHANNELS 3 Zrotation Xrotation Yrotation
                JOINT rThumb2
                {
                  OFFSET -3.37035 -0.52449 3.41376
                  CHANNELS 3 Zrotation Xrotation Yrotation
                  End Site
                  {
                    OFFSET -1.78271 -1.18214 1.43049
                  }
                }
              }
              JOINT rIndex1
              {
                OFFSET -7.75947 0.938293 5.60832
                CHANNELS 3 Zrotation Xrotation Yrotation
                JOINT rIndex2
                {
                  OFFSET -2.54057 -0.884171 1.56538
                  CHANNELS 3 Zrotation Xrotation Yrotation
                  End Site
                  {
                    OFFSET -1.62519 -0.234802 1.16502
                  }
                }
              }
              JOINT rMid1
              {
                OFFSET -8.24714 1.18213 3.41376
                CHANNELS 3 Zrotation Xrotation Yrotation
                JOINT rMid2
                {
                  OFFSET -3.10165 -0.590103 1.0647
                  CHANNELS 3 Zrotation Xrotation Yrotation
                  End Site
                  {
                    OFFSET -2.48547 -0.328903 0.83742
                  }
                }
              }
              JOINT rRing1
              {
                OFFSET -8.82822 0.546677 1.51678
                CHANNELS 3 Zrotation Xrotation Yrotation
                JOINT rRing2
                {
                  OFFSET -2.60934 -0.819778 -0.0198488
                  CHANNELS 3 Zrotation Xrotation Yrotation
                  End Site
                  {
                    OFFSET -2.33842 -0.294052 0.168128
                  }
                }
              }
              JOINT rPinky1
              {
                OFFSET -8.27202 -0.0477905 -0.4584
                CHANNELS 3 Zrotation Xrotation Yrotation
                JOINT rPinky2
                {
                  OFFSET -1.82734 -0.647385 -0.700984
                  CHANNELS 3 Zrotation Xrotation Yrotation
                  End Site
                  {
                    OFFSET -1.69225 -0.51767 -0.607171
                  }
                }
              }
            }
          }
        }
      }
      JOINT lCollar
      {
        OFFSET 2.68224 19.2634 -4.8768
        CHANNELS 3 Zrotation Xrotation Yrotation
        JOINT lShldr
        {
          OFFSET 8.77824 -1.95073 1.46304
          CHANNELS 3 Zrotation Xrotation Yrotation
          JOINT lForeArm
          {
            OFFSET 28.1742 -1.7115 0.48768
            CHANNELS 3 Zrotation Xrotation Yrotation
            JOINT lHand
            {
              OFFSET 22.5879 0.773209 7.07136
              CHANNELS 3 Zrotation Xrotation Yrotation
              JOINT lThumb1
              {
                OFFSET 1.2192 -0.487915 3.41376
                CHANNELS 3 Zrotation Xrotation Yrotation
                JOINT lThumb2
                {
                  OFFSET 3.37035 -0.52449 3.41376
                  CHANNELS 3 Zrotation Xrotation Yrotation
                  End Site
                  {
                    OFFSET 1.78271 -1.18214 1.43049
                  }
                }
              }
              JOINT lIndex1
              {
                OFFSET 7.75947 0.938293 5.60832
                CHANNELS 3 Zrotation Xrotation Yrotation
                JOINT lIndex2
                {
                  OFFSET 2.54057 -0.884171 1.56538
                  CHANNELS 3 Zrotation Xrotation Yrotation
                  End Site
                  {
                    OFFSET 1.62519 -0.234802 1.16502
                  }
                }
              }
              JOINT lMid1
              {
                OFFSET 8.24714 1.18213 3.41376
                CHANNELS 3 Zrotation Xrotation Yrotation
                JOINT lMid2
                {
                  OFFSET 3.10165 -0.590103 1.0647
                  CHANNELS 3 Zrotation Xrotation Yrotation
                  End Site
                  {
                    OFFSET 2.48547 -0.328903 0.83742
                  }
                }
              }
              JOINT lRing1
              {
                OFFSET 8.82822 0.546677 1.51678
                CHANNELS 3 Zrotation Xrotation Yrotation
                JOINT lRing2
                {
                  OFFSET 2.60934 -0.819778 -0.0198488
                  CHANNELS 3 Zrotation Xrotation Yrotation
                  End Site
                  {
                    OFFSET 2.33842 -0.294052 0.168128
                  }
                }
              }
              JOINT lPinky1
              {
                OFFSET 8.27202 -0.0477905 -0.4584
                CHANNELS 3 Zrotation Xrotation Yrotation
                JOINT lPinky2
                {
                  OFFSET 1.82734 -0.647385 -0.700984
                  CHANNELS 3 Zrotation Xrotation Yrotation
                  End Site
                  {
                    OFFSET 1.69225 -0.51767 -0.607171
                  }
                }
              }
            }
          }
        }
      }
    }
  }
  JOINT rButtock
  {
    OFFSET -8.77824 4.35084 1.2192
    CHANNELS 3 Zrotation Xrotation Yrotation
    JOINT rThigh
    {
      OFFSET 0 -1.70687 -2.19456
      CHANNELS 3 Zrotation Xrotation Yrotation
      JOINT rShin
      {
        OFFSET 0 -36.8199 0.73152
        CHANNELS 3 Zrotation Xrotation Yrotation
        JOINT rFoot
        {
          OFFSET 0.73152 -45.1104 -5.12064
          CHANNELS 3 Zrotation Xrotation Yrotation
          End Site
          {
            OFFSET -1.1221 -3.69964 12.103
          }
        }
      }
    }
  }
  JOINT lButtock
  {
    OFFSET 8.77824 4.35084 1.2192
    CHANNELS 3 Zrotation Xrotation Yrotation
    JOINT lThigh
    {
      OFFSET 0 -1.70687 -2.19456
      CHANNELS 3 Zrotation Xrotation Yrotation
      JOINT lShin
      {
        OFFSET 0 -36.8199 0.73152
        CHANNELS 3 Zrotation Xrotation Yrotation
        JOINT lFoot
        {
          OFFSET -0.73152 -45.1104 -5.12064
          CHANNELS 3 Zrotation Xrotation Yrotation
          End Site
          {
            OFFSET 1.1221 -3.69964 12.103
          }
        }
      }
    }
  }
}
MOTION
Frames:	9
Frame Time:	0.00833333
62.2945 77.7777 33.6536 12.397 4.16225 -62.0464 -6.3975 35.3664 0.228796 2.9257 -0.841404 -0.890346 5.25651 6.58452 8.95905 -8.6014 -42.405 14.4919 -0 0 0 -0 0 0 2.6873e-013 9.83153e-014 -1.7988e-013 66.7413 -22.0444 -39.0033 -6.52349 -2.28226 11.4246 -10.7235 64.2967 16.9829 -3.27319e-010 2.59012e-009 -2.37649e-009 -6.89927e-010 4.25503e-009 -4.06557e-009 -3.27325e-010 2.59011e-009 -2.37652e-009 7.73091 5.47488 0.417314 -3.27317e-010 2.59011e-009 -2.3765e-009 2.90554 0.965183 0.102902 -3.27317e-010 2.59012e-009 -2.3765e-009 10.2786 0.731801 0.0259123 -3.27324e-010 2.59012e-009 -2.37648e-009 2.22167 -0.733487 -0.20892 2.68825e-013 9.83951e-014 -1.80065e-013 -97.3749 26.007 42.8527 9.24524 -3.69654 -16.3915 3.8252 47.2416 -8.73925 -1.05243e-010 5.91522e-010 -2.47652e-009 -2.72701e-010 9.92179e-010 -4.25846e-009 -1.05246e-010 5.91518e-010 -2.47652e-009 -7.73091 5.47488 -0.417314 -1.05243e-010 5.91523e-010 -2.47653e-009 -2.90554 0.965183 -0.102902 -1.05244e-010 5.91524e-010 -2.47653e-009 -10.2786 0.731801 -0.0259123 -1.05237e-010 5.9153e-010 -2.47654e-009 -2.22167 -0.733487 0.20892 -2.03217e-016 0 -3.88251e-019 -17.0035 -38.6314 -3.8757 -0.699415 55.2712 1.66863 -5.9946 -13.048 -19.3949 2.03217e-016 0 3.88251e-019 23.5897 -51.3671 21.6505 1.18815 62.7683 -1.93269 -0.501836 2.09579 -4.09089 
62.4176 77.4868 33.5643 12.2949 4.3923 -61.9727 -6.30913 35.6159 0.48208 2.68385 -0.767331 -0.827729 5.58411 6.20077 8.80925 -8.46808 -42.5645 14.1224 -0 0 0 -0 0 0 3.40251e-013 6.43519e-014 -2.41623e-013 66.5204 -23.1357 -39.6313 -6.54808 -2.29368 11.4689 -11.2939 65.0891 17.6149 -7.44441e-010 3.10276e-009 -3.21056e-009 -1.45043e-009 5.05157e-009 -5.47238e-009 -7.44447e-010 3.10274e-009 -3.21058e-009 7.73091 5.47488 0.417314 -7.44438e-010 3.10275e-009 -3.21057e-009 2.90554 0.965183 0.102902 -7.44439e-010 3.10275e-009 -3.21057e-009 10.2786 0.731801 0.0259123 -7.44445e-010 3.10275e-009 -3.21055e-009 2.22167 -0.733487 -0.20892 3.4036e-013 6.44614e-014 -2.41822e-013 -97.9976 27.3966 43.6 9.4108 -3.79089 -16.7011 3.5847 46.129 -8.40629 3.04466e-010 8.55098e-010 -2.95905e-009 4.17363e-010 1.42944e-009 -5.10499e-009 3.04464e-010 8.55097e-010 -2.95905e-009 -7.73091 5.47488 -0.417314 3.04467e-010 8.55103e-010 -2.95906e-009 -2.90554 0.965183 -0.102902 3.04466e-010 8.55104e-010 -2.95906e-009 -10.2786 0.731801 -0.0259123 3.04472e-010 8.55109e-010 -2.95907e-009 -2.22167 -0.733487 0.20892 -2.03217e-016 0 -3.88251e-019 -17.4156 -38.6234 -4.41449 -0.736547 56.1946 1.73592 -5.95503 -12.9817 -19.4456 2.03217e-016 0 3.88251e-019 24.7757 -52.6878 21.1063 1.27137 63.861 -2.04301 -0.362816 1.83947 -1.62287 
62.6092 77.1941 33.5585 12.1615 4.51315 -62.0189 -6.27247 35.8622 0.76002 2.41508 -0.638699 -0.765304 5.75622 5.94418 8.68321 -8.28634 -42.8758 13.8496 -0 0 0 -0 0 0 3.90209e-013 1.43702e-013 -2.49945e-013 65.9719 -24.3514 -40.3751 -6.51213 -2.27699 11.4042 -12.2175 66.2685 18.6307 -1.02702e-009 3.59439e-009 -3.85786e-009 -1.97314e-009 5.82193e-009 -6.5626e-009 -1.02703e-009 3.59438e-009 -3.85788e-009 7.73091 5.47488 0.417314 -1.02702e-009 3.59438e-009 -3.85787e-009 2.90554 0.965183 0.102902 -1.02702e-009 3.59438e-009 -3.85787e-009 10.2786 0.731801 0.0259123 -1.02702e-009 3.59438e-009 -3.85785e-009 2.22167 -0.733487 -0.20892 3.90276e-013 1.43816e-013 -2.50148e-013 -98.2941 28.2632 44.146 9.49958 -3.84185 -16.8676 3.39058 45.1903 -8.13424 5.34188e-010 1.08559e-009 -3.54598e-009 7.93664e-010 1.8127e-009 -6.12546e-009 5.34186e-010 1.08558e-009 -3.54598e-009 -7.73091 5.47488 -0.417314 5.34189e-010 1.08559e-009 -3.54599e-009 -2.90554 0.965183 -0.102902 5.34188e-010 1.08559e-009 -3.54598e-009 -10.2786 0.731801 -0.0259123 5.34194e-010 1.0856e-009 -3.546e-009 -2.22167 -0.733487 0.20892 -2.03217e-016 0 -3.88251e-019 -17.9385 -38.4486 -4.78862 -0.767531 56.958 1.79906 -6.05682 -12.9394 -19.9146 2.03217e-016 0 3.88251e-019 25.4254 -53.5421 19.6477 1.28551 64.0794 -2.08734 -0.249114 1.6079 0.345172 
62.7519 76.8349 33.5728 12.0023 4.56636 -62.1513 -6.26086 36.0997 1.10748 2.08701 -0.456526 -0.688737 5.86633 5.73494 8.55156 -8.09813 -43.2764 13.5755 -0 0 0 -0 0 0 4.18618e-013 3.0051e-013 -2.13662e-013 65.1338 -25.7657 -41.2947 -6.43843 -2.2428 11.2717 -13.5748 67.7838 20.1059 -1.22295e-009 3.92323e-009 -4.258e-009 -2.3358e-009 6.32906e-009 -7.23113e-009 -1.22295e-009 3.92324e-009 -4.25802e-009 7.73091 5.47488 0.417314 -1.22295e-009 3.92323e-009 -4.25801e-009 2.90554 0.965183 0.102902 -1.22295e-009 3.92323e-009 -4.258e-009 10.2786 0.731801 0.0259123 -1.22295e-009 3.92323e-009 -4.25799e-009 2.22167 -0.733487 -0.20892 4.18606e-013 3.00615e-013 -2.13867e-013 -98.3551 28.8694 44.5632 9.5406 -3.86592 -16.9441 3.21944 44.3317 -7.89186 6.19693e-010 1.24643e-009 -4.05015e-009 9.2599e-010 2.08041e-009 -6.99879e-009 6.19689e-010 1.24643e-009 -4.05016e-009 -7.73091 5.47488 -0.417314 6.19694e-010 1.24643e-009 -4.05016e-009 -2.90554 0.965183 -0.102902 6.1969e-010 1.24644e-009 -4.05016e-009 -10.2786 0.731801 -0.0259123 6.19697e-010 1.24644e-009 -4.05017e-009 -2.22167 -0.733487 0.20892 -2.03217e-016 0 -3.88251e-019 -18.5542 -38.1428 -5.04266 -0.792335 57.5856 1.85788 -6.25959 -12.92 -20.6789 2.03217e-016 0 3.88251e-019 25.6484 -54.0351 17.4269 1.24276 63.6544 -2.07669 -0.130949 1.22862 2.17217 
62.7947 76.4274 33.5956 11.8307 4.53051 -62.3874 -6.29679 36.3096 1.47459 1.75435 -0.249715 -0.611883 5.85519 5.60644 8.4229 -7.88334 -43.7158 13.3461 -0 0 0 -0 0 0 4.26952e-013 4.43009e-013 -1.66699e-013 64.1924 -26.9944 -42.2574 -6.34498 -2.1997 11.104 -15.1492 69.2812 21.7966 -1.31634e-009 4.09396e-009 -4.4287e-009 -2.51017e-009 6.58789e-009 -7.51192e-009 -1.31634e-009 4.09397e-009 -4.42872e-009 7.73091 5.47488 0.417314 -1.31634e-009 4.09397e-009 -4.4287e-009 2.90554 0.965183 0.102902 -1.31634e-009 4.09397e-009 -4.4287e-009 10.2786 0.731801 0.0259123 -1.31634e-009 4.09396e-009 -4.42869e-009 2.22167 -0.733487 -0.20892 4.2686e-013 4.43098e-013 -1.66902e-013 -98.3879 29.2568 44.9541 9.56674 -3.88181 -16.9921 3.08702 43.6401 -7.70171 6.26864e-010 1.32954e-009 -4.35835e-009 9.30393e-010 2.21848e-009 -7.53151e-009 6.26859e-010 1.32954e-009 -4.35835e-009 -7.73091 5.47488 -0.417314 6.26864e-010 1.32954e-009 -4.35835e-009 -2.90554 0.965183 -0.102902 6.26859e-010 1.32954e-009 -4.35835e-009 -10.2786 0.731801 -0.0259123 6.26868e-010 1.32954e-009 -4.35836e-009 -2.22167 -0.733487 0.20892 -2.03217e-016 0 -3.88251e-019 -19.2252 -37.7787 -5.1133 -0.813314 58.1235 1.91328 -6.51951 -12.9094 -21.6014 2.03217e-016 0 3.88251e-019 25.4776 -54.1383 14.6172 1.15906 62.6983 -2.02161 -0.0444318 0.685532 3.43283 
62.8551 75.951 33.681 11.659 4.38604 -62.7454 -6.40122 36.4737 1.81057 1.47213 -0.0471769 -0.548588 5.66387 5.59211 8.30581 -7.6187 -44.1436 13.2094 -0 0 0 -0 0 0 4.16681e-013 4.79432e-013 -1.42976e-013 63.3752 -27.6739 -43.0846 -6.24994 -2.15629 10.9334 -16.5399 70.4218 23.276 -1.29131e-009 4.11122e-009 -4.38767e-009 -2.46797e-009 6.61333e-009 -7.43892e-009 -1.29131e-009 4.11123e-009 -4.38769e-009 7.73091 5.47488 0.417314 -1.29131e-009 4.11123e-009 -4.38767e-009 2.90554 0.965183 0.102902 -1.29131e-009 4.11123e-009 -4.38767e-009 10.2786 0.731801 0.0259123 -1.29131e-009 4.11122e-009 -4.38766e-009 2.22167 -0.733487 -0.20892 4.16552e-013 4.79505e-013 -1.43175e-013 -98.6061 29.4626 45.4278 9.61065 -3.90812 -17.0734 3.00688 43.2029 -7.58459 6.21585e-010 1.32681e-009 -4.35734e-009 9.22923e-010 2.21283e-009 -7.53016e-009 6.2158e-010 1.32681e-009 -4.35734e-009 -7.73091 5.47488 -0.417314 6.21585e-010 1.32681e-009 -4.35734e-009 -2.90554 0.965183 -0.102902 6.21578e-010 1.32681e-009 -4.35734e-009 -10.2786 0.731801 -0.0259123 6.21589e-010 1.32681e-009 -4.35734e-009 -2.22167 -0.733487 0.20892 -2.03217e-016 0 -3.88251e-019 -19.9184 -37.4286 -4.93958 -0.833315 58.6177 1.96667 -6.7919 -12.8953 -22.5453 2.03217e-016 0 3.88251e-019 24.9918 -53.8291 11.4342 1.054 61.3229 -1.93616 -0.0474432 -0.0383542 3.7025 
62.9423 75.4304 33.912 11.4533 4.15371 -63.3017 -6.56988 36.5755 2.09732 1.2623 0.176846 -0.503534 5.16906 5.76762 8.20395 -7.20391 -44.6368 13.244 -0 0 0 -0 0 0 3.83052e-013 3.63139e-013 -1.55531e-013 62.854 -27.5265 -43.5985 -6.15062 -2.11146 10.7552 -17.3121 70.9933 24.0927 -1.06786e-009 3.92037e-009 -4.02493e-009 -2.06503e-009 6.32846e-009 -6.82936e-009 -1.06786e-009 3.92038e-009 -4.02494e-009 7.73091 5.47488 0.417314 -1.06787e-009 3.92038e-009 -4.02493e-009 2.90554 0.965183 0.102902 -1.06786e-009 3.92038e-009 -4.02493e-009 10.2786 0.731801 0.0259123 -1.06787e-009 3.92038e-009 -4.02492e-009 2.22167 -0.733487 -0.20892 3.82945e-013 3.63195e-013 -1.55719e-013 -99.1436 29.4341 46.0294 9.69176 -3.95639 -17.2244 2.98794 43.0926 -7.55604 5.88688e-010 1.18656e-009 -3.87408e-009 8.82932e-010 1.97649e-009 -6.69546e-009 5.88683e-010 1.18656e-009 -3.87408e-009 -7.73091 5.47488 -0.417314 5.88688e-010 1.18656e-009 -3.87408e-009 -2.90554 0.965183 -0.102902 5.88681e-010 1.18656e-009 -3.87408e-009 -10.2786 0.731801 -0.0259123 5.88693e-010 1.18656e-009 -3.87408e-009 -2.22167 -0.733487 0.20892 -2.03217e-016 0 -3.88251e-019 -20.5473 -37.0735 -4.38514 -0.851267 59.0537 2.01673 -7.14238 -12.9769 -23.5802 2.03217e-016 0 3.88251e-019 24.2296 -52.8678 7.59717 0.915142 59.1523 -1.80589 -0.255162 -0.931133 2.45736 
62.9457 74.8531 34.0816 11.2142 3.84325 -64.0245 -6.79298 36.629 2.36233 1.09319 0.426614 -0.469006 4.43938 6.0931 8.11234 -6.67598 -45.1919 13.4076 -0 0 0 -0 0 0 3.26994e-013 1.50462e-013 -1.84941e-013 62.5056 -26.8292 -43.9125 -6.0397 -2.06172 10.5565 -17.6452 71.2287 24.4444 -6.79726e-010 3.53757e-009 -3.36925e-009 -1.36196e-009 5.75229e-009 -5.72908e-009 -6.79723e-010 3.53757e-009 -3.36926e-009 7.73091 5.47488 0.417314 -6.79726e-010 3.53757e-009 -3.36925e-009 2.90554 0.965183 0.102902 -6.79721e-010 3.53756e-009 -3.36925e-009 10.2786 0.731801 0.0259123 -6.79729e-010 3.53757e-009 -3.36925e-009 2.22167 -0.733487 -0.20892 3.26948e-013 1.50498e-013 -1.85115e-013 -99.8506 29.1746 46.6862 9.78886 -4.01439 -17.4056 3.01606 43.2467 -7.59714 5.03948e-010 9.29615e-010 -3.01658e-009 7.65724e-010 1.5447e-009 -5.21317e-009 5.03942e-010 9.29611e-010 -3.01658e-009 -7.73091 5.47488 -0.417314 5.03947e-010 9.29614e-010 -3.01658e-009 -2.90554 0.965183 -0.102902 5.03941e-010 9.29613e-010 -3.01658e-009 -10.2786 0.731801 -0.0259123 5.03953e-010 9.29613e-010 -3.01658e-009 -2.22167 -0.733487 0.20892 -2.03217e-016 0 -3.88251e-019 -21.1686 -36.6824 -3.53031 -0.865306 59.4159 2.06237 -7.5754 -13.1212 -24.7449 2.03217e-016 0 3.88251e-019 23.4776 -51.2502 3.37242 0.762292 56.2617 -1.6536 -0.689336 -1.99053 0.0600419 
62.9115 74.1582 34.1394 11.0045 3.42396 -64.7731 -7.08283 36.6616 2.6229 0.939736 0.640972 -0.440247 3.70325 6.42857 8.02642 -6.22157 -45.6379 13.5631 -0 0 0 -0 0 0 2.5851e-013 -9.59092e-014 -2.1644e-013 62.1295 -26.0537 -44.2648 -5.9286 -2.01218 10.3579 -17.9771 71.4641 24.7952 -2.8159e-010 3.07363e-009 -2.64654e-009 -6.37704e-010 5.04365e-009 -4.51494e-009 -2.81586e-010 3.07362e-009 -2.64655e-009 7.73091 5.47488 0.417314 -2.81588e-010 3.07362e-009 -2.64655e-009 2.90554 0.965183 0.102902 -2.81585e-010 3.07362e-009 -2.64655e-009 10.2786 0.731801 0.0259123 -2.81596e-010 3.07362e-009 -2.64654e-009 2.22167 -0.733487 -0.20892 2.58531e-013 -9.58925e-014 -2.166e-013 -100.521 28.8013 47.3362 9.87376 -4.06521 -17.5646 3.07143 43.5496 -7.67811 4.19662e-010 6.56652e-010 -2.09317e-009 6.51279e-010 1.08673e-009 -3.61731e-009 4.19656e-010 6.56647e-010 -2.09315e-009 -7.73091 5.47488 -0.417314 4.19661e-010 6.5665e-010 -2.09316e-009 -2.90554 0.965183 -0.102902 4.19655e-010 6.56649e-010 -2.09316e-009 -10.2786 0.731801 -0.0259123 4.19668e-010 6.5665e-010 -2.09316e-009 -2.22167 -0.733487 0.20892 -2.03217e-016 0 -3.88251e-019 -21.9563 -36.312 -2.63465 -0.877789 59.7487 2.10602 -7.93998 -13.1274 -25.8536 2.03217e-016 0 3.88251e-019 22.9655 -49.4149 -0.38044 0.639649 53.4406 -1.52539 -1.26132 -3.24503 -2.58575 
